<svg width="576" height="276" viewBox="0 0 576 276" fill="none" xmlns="http://www.w3.org/2000/svg">
<path d="M271.366 73.5872L350.96 73.6875L350.523 77.409L269.195 77.3994L271.366 73.5872Z" fill="#253780"/>
<rect x="1.85168" y="12.5967" width="448.057" height="61.0987" fill="#253780"/>
<path d="M422.744 86.6558L575.81 41.2669L422.744 3.33939L365.374 25.0001L314.751 24.0271V58.5067L365.374 57.4913L422.744 86.6558Z" fill="#253780"/>
<path d="M354.479 65.2498L402.879 65.2723L410.308 73.7474H354.468L354.479 65.2498Z" fill="#DEAC31"/>
<path d="M255.521 208.361C224.097 121.319 269.218 77.3984 269.218 77.3984H360.266C360.266 77.3984 307.088 95.7651 315.951 160.448C324.814 225.131 413.445 208.361 413.445 208.361L427.691 270.294C427.691 270.294 286.944 295.403 255.521 208.361Z" fill="#253780"/>
<path d="M124.23 71.844H202.845L205.514 273.655H122.198L124.23 71.844Z" fill="#253780"/>
<path d="M1.62227 73.6955H81.9246L82.7358 274.045H0L1.62227 73.6955Z" fill="#253780"/>
<path d="M1.82092 12.4438H398.169L398.776 20.3344L1.82092 21.5483V12.4438Z" fill="#DEAC31"/>
<path d="M0.0170251 265.548H82.7059L82.7477 274.046H0L0.0170251 265.548Z" fill="#DEAC31"/>
<path d="M122.624 265.548H205.684L205.761 274.046H122.607L122.624 265.548Z" fill="#DEAC31"/>
<path d="M72.8481 65.2498H132.288L132.318 73.7473H72.8358L72.8481 65.2498Z" fill="#DEAC31"/>
<path d="M267.308 72.7328L275.536 72.5334L275.575 78.016L267.065 77.37L267.308 72.7328Z" fill="#DEAC31"/>
<path d="M9.71143 20.3344L7.55333 274.046H-1.43051e-05L1.82088 20.3344H9.71143Z" fill="#DEAC31"/>
<path d="M81.9404 73.7473L83.1543 274.046H72.8359V66.4637L81.9404 73.7473Z" fill="#DEAC31"/>
<path d="M132.318 65.2498L131.711 274.046H122L123.821 65.2498H132.318Z" fill="#DEAC31"/>
<path d="M205.761 65.2498L205.154 274.046H195.443L197.264 65.2498H205.761Z" fill="#DEAC31"/>
<path d="M422.696 86.6958L397.353 73.7469L402.418 65.2498L426.173 78.15L422.696 86.6958Z" fill="#DEAC31"/>
<path d="M200.314 65.2498L275.558 65.2546L275.537 73.7594L200.299 73.7474L200.314 65.2498Z" fill="#DEAC31"/>
<path d="M420.05 78.599L560.014 37.3325L575.812 41.2776L422.704 86.6786L420.05 78.599Z" fill="#DEAC31"/>
<path d="M396.331 12.8806L422.677 3.33575L426.697 10.016L398.776 20.3344L396.331 12.8806Z" fill="#DEAC31"/>
<path d="M351.73 65.2259L359.179 65.2955L360.537 77.3159H348.398L351.73 65.2259Z" fill="#DEAC31"/>
<path d="M272.637 74.9481C272.637 74.9481 216.687 128.374 255.533 211.528C294.378 294.682 427.304 267.369 427.304 267.369" stroke="#DEAC31" stroke-width="7"/>
<path d="M358.33 73.6628C358.33 73.6628 294.985 110.165 317.443 169.041C339.901 227.916 414.557 212.135 414.557 212.135" stroke="#DEAC31" stroke-width="7"/>
<path d="M562.018 37.819L575.81 41.2669L561.156 45.5769L562.018 37.819Z" fill="#DEAC31"/>
<path d="M423.662 270.404L409.803 209.416" stroke="#DEAC31" stroke-width="7"/>
<path d="M559.623 45.8269L418.199 10.016L422.72 3.30094L562.066 37.8299L559.623 45.8269Z" fill="#DEAC31"/>
</svg>
