<svg width="576" height="276" viewBox="0 0 576 276" fill="none" xmlns="http://www.w3.org/2000/svg">
<path d="M124.23 71.844H202.845L205.514 273.655H122.198L124.23 71.844Z" fill="white"/>
<path d="M271.366 73.5872L350.96 73.6875L350.523 77.409L269.195 77.3994L271.366 73.5872Z" fill="white"/>
<rect x="1.85156" y="12.5967" width="448.057" height="61.0987" fill="white"/>
<path d="M422.744 86.6558L575.81 41.2669L422.744 3.33939L365.373 25.0001L314.751 24.0271V58.5067L365.373 57.4913L422.744 86.6558Z" fill="white"/>
<path d="M255.521 208.361C224.097 121.319 269.218 77.3984 269.218 77.3984H360.266C360.266 77.3984 307.088 95.7651 315.951 160.448C324.814 225.131 413.445 208.361 413.445 208.361L427.691 270.294C427.691 270.294 286.944 295.403 255.521 208.361Z" fill="white"/>
<path d="M1.62227 73.6955H81.9246L82.7358 274.045H0L1.62227 73.6955Z" fill="white"/>
<path d="M131.213 273.546H122.505L124.316 65.7498H131.817L131.213 273.546Z" fill="#253780" stroke="#253780"/>
<path d="M402.652 65.7713L409.205 73.2469H354.969L354.979 65.7498L402.652 65.7713Z" fill="#253780" stroke="#253780"/>
<path d="M397.706 12.9438L398.236 19.8354L2.32104 21.0464V12.9438H397.706Z" fill="#253780" stroke="#253780"/>
<path d="M82.209 266.048L82.2451 273.545H0.500977L0.515625 266.048H82.209Z" fill="#253780" stroke="#253780"/>
<path d="M205.189 266.048L205.256 273.545H123.108L123.123 266.048H205.189Z" fill="#253780" stroke="#253780"/>
<path d="M131.79 65.7498L131.816 73.2469H73.3367L73.3474 65.7498H131.79Z" fill="#253780" stroke="#253780"/>
<path d="M275.04 76.8567L267.591 76.8694L267.782 73.2209L275.036 73.0451L275.04 76.8567Z" fill="#253780" stroke="#253780"/>
<path d="M7.05811 273.545H0.503418L2.31787 20.8344H9.20752L7.05811 273.545Z" fill="#253780" stroke="#253780"/>
<path d="M73.3357 273.546V67.5048L81.4421 73.9882L82.6511 273.546H73.3357Z" fill="#253780" stroke="#253780"/>
<path d="M423.662 270.404L409.803 209.416" stroke="#253780" stroke-width="7"/>
<path d="M204.656 273.546H195.948L197.759 65.7498H205.26L204.656 273.546Z" fill="#253780" stroke="#253780"/>
<path d="M402.602 65.9197L425.542 78.3759L422.438 86.0032L398.056 73.5454L402.602 65.9197Z" fill="#253780" stroke="#253780"/>
<path d="M275.055 65.7537L275.038 73.2586L200.799 73.2469L200.813 65.7498L275.055 65.7537Z" fill="#253780" stroke="#253780"/>
<path d="M560.024 37.8501L573.912 41.319L423.027 86.0615L420.685 78.9327L560.024 37.8501Z" fill="#253780" stroke="#253780"/>
<path d="M422.459 3.94617L425.957 9.75677L399.088 19.6856L396.956 13.1849L422.459 3.94617Z" fill="#253780" stroke="#253780"/>
<path d="M359.022 65.7707L359.617 76.257L351.527 76.4846L352.104 65.7101L359.022 65.7707Z" fill="#253780" stroke="#253780"/>
<path d="M272.636 74.948C272.636 74.948 216.687 128.374 255.532 211.528C294.378 294.682 427.303 267.369 427.303 267.369" stroke="#253780" stroke-width="7"/>
<path d="M358.33 73.6628C358.33 73.6628 294.985 110.165 317.443 169.041C339.9 227.916 414.557 212.135 414.557 212.135" stroke="#253780" stroke-width="7"/>
<path d="M573.906 41.3053L561.736 44.8844L562.452 38.443L573.906 41.3053Z" fill="#253780" stroke="#253780"/>
<path d="M422.939 3.8713L561.434 38.1895L559.284 45.2253L419.012 9.70603L422.939 3.8713Z" fill="#253780" stroke="#253780"/>
</svg>
